        <svg width="80" height="80" viewBox="0 0 85 50">
          <defs id="SvgjsDefs6826">
            <linearGradient id="SvgjsLinearGradient6833">
              <stop id="SvgjsStop6834" stop-color="#8f5e25" offset="0"></stop>
              <stop id="SvgjsStop6835" stop-color="#fbf4a1" offset="0.5"></stop>
              <stop id="SvgjsStop6836" stop-color="#8f5e25" offset="1"></stop>
            </linearGradient>
            <linearGradient id="SvgjsLinearGradient6837">
              <stop id="SvgjsStop6838" stop-color="#8f5e25" offset="0"></stop>
              <stop id="SvgjsStop6839" stop-color="#fbf4a1" offset="0.5"></stop>
              <stop id="SvgjsStop6840" stop-color="#8f5e25" offset="1"></stop>
            </linearGradient>
            <linearGradient id="SvgjsLinearGradient6841">
              <stop id="SvgjsStop6842" stop-color="#8f5e25" offset="0"></stop>
              <stop id="SvgjsStop6843" stop-color="#fbf4a1" offset="0.5"></stop>
              <stop id="SvgjsStop6844" stop-color="#8f5e25" offset="1"></stop>
            </linearGradient>
          </defs>
          <g id="SvgjsG6827" featurekey="phAakL-0"
            transform="matrix(0.8181842201997009,0,0,0.8181842201997009,1.701259954135641,-20.564242827208805)"
            fill="url(#SvgjsLinearGradient6833)">
            <g xmlns="http://www.w3.org/2000/svg">
              <path
                d="M23.114,60.092l1.436,0.435C27.916,49.42,38.382,41.662,50,41.662v-1.5C37.725,40.162,26.67,48.357,23.114,60.092z">
              </path>
              <path
                d="M85.048,67.067C84.478,49.991,71.652,35.97,55.1,33.548v-3.314c0-2.812-2.288-5.1-5.1-5.1c-2.813,0-5.101,2.288-5.101,5.1   v3.314c-16.551,2.422-29.377,16.443-29.947,33.52H5.254v7.799h89.493v-7.799h-9.699V67.067z M46.4,30.233   c0-1.985,1.615-3.6,3.601-3.6c1.985,0,3.6,1.615,3.6,3.6v3.123c-1.184-0.121-2.385-0.184-3.601-0.184   c-1.215,0-2.416,0.063-3.6,0.184V30.233z M45.786,34.946c0.669-0.084,1.321-0.145,1.966-0.19c0.074-0.005,0.148-0.012,0.222-0.017   c0.676-0.043,1.345-0.066,2.013-0.066c0.004,0,0.009,0,0.013,0c0.017,0,0.033,0.001,0.049,0.001   c0.659,0.001,1.318,0.024,1.985,0.066c0.072,0.004,0.143,0.012,0.215,0.016c0.649,0.046,1.304,0.107,1.976,0.192   c16.143,2.037,28.746,15.572,29.323,32.12H16.453C17.029,50.515,29.638,36.978,45.786,34.946z M93.246,73.366H6.754v-4.799h86.493   L93.246,73.366L93.246,73.366z">
              </path>
            </g>
          </g>
        </svg>